<?xml version="1.0" encoding="UTF-8"?>
<svg width="1200pt" height="1200pt" version="1.1" viewBox="0 0 1200 1200" xmlns="http://www.w3.org/2000/svg">
 <path d="m1143.8 75h-1087.5c-31.07 0-56.25 25.18-56.25 56.25v937.5c0 31.07 25.18 56.25 56.25 56.25h1087.5c31.07 0 56.25-25.18 56.25-56.25v-937.5c0-31.07-25.18-56.25-56.25-56.25zm-693.75 56.25c31.07 0 56.25 25.18 56.25 56.25s-25.18 56.25-56.25 56.25-56.25-25.18-56.25-56.25 25.18-56.25 56.25-56.25zm-168.75 0c31.07 0 56.25 25.18 56.25 56.25s-25.18 56.25-56.25 56.25-56.25-25.18-56.25-56.25 25.18-56.25 56.25-56.25zm-168.75 0c31.07 0 56.25 25.18 56.25 56.25s-25.18 56.25-56.25 56.25-56.25-25.18-56.25-56.25 25.18-56.25 56.25-56.25zm1031.2 937.5h-1087.5v-768.75h1087.5z" fill="#1c375b"/>
</svg>
