<?xml version="1.0" encoding="utf-8"?>
<!-- Generator: Adobe Illustrator 26.0.3, SVG Export Plug-In . SVG Version: 6.00 Build 0)  -->
<svg version="1.1" id="Layer_1" xmlns="http://www.w3.org/2000/svg" xmlns:xlink="http://www.w3.org/1999/xlink" x="0px" y="0px"
	 viewBox="0 0 497.8 497.8" style="enable-background:new 0 0 497.8 497.8;" xml:space="preserve">
<style type="text/css">
	.st0{fill:#FFFFFF;}
</style>
<path class="st0" d="M247.7,299.4c28.2,0.6,51.1-22,51.7-49.4c0.6-28.3-22.2-51.6-50.5-51.6c-27.7,0-50.1,22.2-50.5,49.8
	C198,276.4,220.6,298.8,247.7,299.4z M325.8,258.2c-1.3,11.1-4.9,21.5-10.8,31.1c-5.8,9.6-13.4,17.5-22.7,23.8
	c-24.1,16.4-55.7,17.8-81.3,3.5c-12.9-7.2-23-17.3-30.1-30.3c-10.5-19.4-12.2-39.8-6-60.9c-7.9,0-15.8,0-23.7,0v0.7
	c0,36.9,0,73.8,0,110.7c0,5.3,4.6,9.9,9.9,9.9c58.5,0,117,0,175.5,0c5.4,0,9.9-4.6,9.9-9.9c0-36.8,0-73.7,0-110.6v-0.8h-23.8
	C326.1,236.1,327.2,247,325.8,258.2z M303.4,181.5c1.4,4.2,5.2,6.7,9.9,6.7c3.8,0,7.6,0,11.4,0v0c4.1,0,8.2,0.1,12.3,0
	c5.3-0.1,9.6-4.7,9.6-9.9c0-7.9,0-15.7,0-23.6c0-5.6-4.5-10.1-10.1-10.1c-7.9,0-15.7,0-23.6,0c-5.6,0-10.1,4.5-10.1,10.2
	c0,7.8,0,15.6,0,23.4C302.8,179.2,303.1,180.4,303.4,181.5z M248.9,0C111.4,0,0,111.4,0,248.9s111.4,248.9,248.9,248.9
	s248.9-111.4,248.9-248.9S386.4,0,248.9,0z M373.6,348.7c-0.2,1.1-0.3,2.2-0.5,3.3c-2,10.2-10.3,18.7-20.5,20.9
	c-1.3,0.3-2.6,0.5-3.9,0.7H149.2c-0.5-0.1-1.1-0.2-1.6-0.2c-11-1.4-20.2-9.8-22.6-20.6c-0.3-1.3-0.5-2.5-0.7-3.8v-200
	c0.1-0.5,0.2-0.9,0.2-1.4c1.6-11.2,9.7-20.1,20.8-22.6c1.2-0.3,2.4-0.4,3.6-0.7h200c0.5,0.1,0.9,0.2,1.4,0.2
	c11.3,1.6,20.5,10.2,22.7,21.4c0.2,1.1,0.4,2.2,0.5,3.3L373.6,348.7L373.6,348.7z"/>
</svg>
