<?xml version="1.0" encoding="UTF-8"?>
<svg width="1200pt" height="1200pt" version="1.1" viewBox="0 0 1200 1200" xmlns="http://www.w3.org/2000/svg">
 <g fill="#1c375b">
  <path d="m1120.9 200h-1041.8c-21.16 0-41.043 8.1992-55.883 23.078-14.758 14.684-23.238 35.121-23.238 56v641.88c0 43.562 35.48 79.043 79.078 79.043h1041.9c43.562 0 79.043-35.48 79.043-79.078v-641.84c0-43.598-35.48-79.078-79.078-79.078zm-0.92188 720-1040 0.92188-0.87891-640.92 1040.9-0.92188z"/>
  <path d="m160 640h360v40h-360z"/>
  <path d="m160 760h360v40h-360z"/>
  <path d="m879.56 600h120.84c21.883 0 39.602-17.719 39.602-39.559v-160.88c0-21.84-17.719-39.559-39.559-39.559h-120.84c-21.883 0-39.602 17.719-39.602 39.559v160.84c0 21.883 17.719 39.602 39.559 39.602z"/>
 </g>
</svg>
