<?xml version="1.0" encoding="utf-8"?>
<!-- Generator: Adobe Illustrator 26.0.3, SVG Export Plug-In . SVG Version: 6.00 Build 0)  -->
<svg version="1.1" id="Layer_1" xmlns="http://www.w3.org/2000/svg" xmlns:xlink="http://www.w3.org/1999/xlink" x="0px" y="0px"
	 viewBox="0 0 497.8 497.8" style="enable-background:new 0 0 497.8 497.8;" xml:space="preserve">
<style type="text/css">
	.st0{fill:#FFFFFF;}
</style>
<path class="st0" d="M264,207.3v-0.5c-0.1,0.2-0.2,0.4-0.3,0.5H264z M248.9,0C111.4,0,0,111.4,0,248.9s111.4,248.9,248.9,248.9
	s248.9-111.4,248.9-248.9C497.8,111.4,386.4,0,248.9,0z M180.4,345.7h-53.8V183.8h53.8L180.4,345.7L180.4,345.7z M153.5,161.7h-0.4
	c-18.1,0-29.8-12.4-29.8-28c0-15.9,12.1-28,30.5-28c18.4,0,29.7,12.1,30.1,28C183.9,149.3,172.2,161.7,153.5,161.7z M374.5,345.7
	h-53.8v-86.6c0-21.8-7.8-36.6-27.3-36.6c-14.9,0-23.7,10-27.6,19.7c-1.4,3.5-1.8,8.3-1.8,13.1v90.4h-53.8c0,0,0.7-146.7,0-161.9H264
	v22.9c7.1-11,19.9-26.8,48.5-26.8c35.4,0,62,23.1,62,72.9L374.5,345.7L374.5,345.7z"/>
</svg>
