<svg xmlns="http://www.w3.org/2000/svg" viewBox="0 0 212.65 187.63"><defs><style>.cls-1{isolation:isolate;}.cls-2,.cls-3{mix-blend-mode:screen;}.cls-2{opacity:0.8;}.cls-4{fill:#59c2c4;}.cls-5,.cls-7,.cls-9{fill:none;stroke-miterlimit:10;}.cls-5{stroke:#00c4c4;}.cls-5,.cls-9{stroke-width:30.19px;}.cls-6{fill:#00a3c4;}.cls-7{stroke:#ff8000;stroke-width:23.48px;}.cls-8{fill:#ff8000;}.cls-9{stroke:#ff3f19;}</style></defs><g class="cls-1"><g id="Layer_2" data-name="Layer 2"><g id="Layer_1-2" data-name="Layer 1"><g class="cls-2"><g class="cls-3"><path class="cls-4" d="M173.68,84.47C178,43.39,135.78,11.66,102,15.39c-53.17-.87-70.71,39.66-75.19,83.84,13.25,34,48.35,60.27,78.37,58.84C152.19,152.35,174.32,122.17,173.68,84.47Z"/><path class="cls-5" d="M173.68,84.47C178,43.39,135.78,11.66,102,15.39c-53.17-.87-70.71,39.66-75.19,83.84,13.25,34,48.35,60.27,78.37,58.84C152.19,152.35,174.32,122.17,173.68,84.47Z"/></g><g class="cls-3"><path class="cls-6" d="M200.22,94.19c-1.69-31.81-39.69-72.66-86.13-55.86-45.4-5.84-73.65,31.37-56.71,72.45-1.43,34.68,27.65,73.64,72.36,61C173.33,168.93,206.1,133.2,200.22,94.19Z"/><path class="cls-7" d="M200.22,94.19c-1.69-31.81-39.69-72.66-86.13-55.86-45.4-5.84-73.65,31.37-56.71,72.45-1.43,34.68,27.65,73.64,72.36,61C173.33,168.93,206.1,133.2,200.22,94.19Z"/></g><g class="cls-3"><path class="cls-8" d="M165,97.15c-.76-45-44.64-76.72-85.79-62.43C38.6,37.16,20.66,72.69,15.1,115c.05,31.43,40.81,63,83.7,56.77C141.23,169,172.35,133.9,165,97.15Z"/><path class="cls-9" d="M165,97.15c-.76-45-44.64-76.72-85.79-62.43C38.6,37.16,20.66,72.69,15.1,115c.05,31.43,40.81,63,83.7,56.77C141.23,169,172.35,133.9,165,97.15Z"/></g></g></g></g></g></svg>