<?xml version="1.0" encoding="UTF-8"?>
<svg id="Layer_2" data-name="Layer 2" xmlns="http://www.w3.org/2000/svg" viewBox="0 0 344.24 102.57">
  <defs>
    <style>
      .cls-1 {
        letter-spacing: -.02em;
      }

      .cls-2 {
        letter-spacing: -.02em;
      }

      .cls-3 {
        letter-spacing: -.02em;
      }

      .cls-4 {
        font-family: BigShouldersDisplay-SemiBold, 'Big Shoulders Display';
        font-size: 41.9px;
        font-weight: 600;
      }

      .cls-4, .cls-5 {
        fill: #fff;
      }

      .cls-6 {
        letter-spacing: -.03em;
      }

      .cls-7 {
        fill: #ffdcd5;
      }

      .cls-8 {
        fill: #ffedd5;
      }

      .cls-9 {
        fill: #ffdad5;
      }

      .cls-10 {
        fill: #ffe8d0;
      }

      .cls-11 {
        fill: #fff7f4;
      }

      .cls-12 {
        fill: #fff6f4;
      }

      .cls-13 {
        fill: #fff3d0;
      }

      .cls-14 {
        fill: #fff4d0;
      }

      .cls-15 {
        fill: #fff2f5;
      }

      .cls-16 {
        fill: #fff1f5;
      }

      .cls-17 {
        fill: #ffe7d0;
      }

      .cls-18 {
        fill: #ffb247;
      }

      .cls-19 {
        fill: #f93;
      }

      .cls-20 {
        fill: #ff6547;
      }

      .cls-21 {
        fill: #33d0d0;
      }

      .cls-5 {
        font-family: BigShouldersDisplay-Black, 'Big Shoulders Display';
        font-size: 62.85px;
        font-weight: 800;
      }

      .cls-22 {
        letter-spacing: -.02em;
      }

      .cls-23 {
        letter-spacing: 0em;
      }

      .cls-24 {
        letter-spacing: 0em;
      }

      .cls-25 {
        letter-spacing: 0em;
      }

      .cls-26 {
        letter-spacing: -.03em;
      }
    </style>
  </defs>
  <g id="Layer_1-2" data-name="Layer 1">
    <g>
      <text class="cls-4" transform="translate(208.35 90.16)"><tspan class="cls-3" x="0" y="0">s</tspan><tspan class="cls-23" x="14.75" y="0">t</tspan><tspan class="cls-26" x="27.57" y="0">r</tspan><tspan class="cls-1" x="38.42" y="0">a</tspan><tspan class="cls-6" x="53.22" y="0">t</tspan><tspan class="cls-22" x="64.99" y="0">e</tspan><tspan x="80.33" y="0">gic</tspan></text>
      <text class="cls-5" transform="translate(61.28 56.57)"><tspan x="0" y="0">P</tspan><tspan class="cls-24" x="29.48" y="0">E</tspan><tspan class="cls-2" x="54.37" y="0">RC</tspan><tspan class="cls-24" x="112.44" y="0">U</tspan><tspan class="cls-2" x="143.56" y="0">SS</tspan><tspan class="cls-25" x="204.4" y="0">I</tspan><tspan class="cls-2" x="218.23" y="0">O</tspan><tspan x="248.84" y="0">N</tspan></text>
    </g>
    <g>
      <path class="cls-21" d="m50.68,40.91c-.48.76-1,1.5-1.55,2.22-2.93,3.76-6.82,6.83-11.15,8.86l-.54.25-.59.09c-1.52.23-3.05.34-4.55.34,0,0,0,0,0,0-.17,0-.35,0-.52,0-.18.15-.36.29-.54.43l-.75.59-.95.09c-1.22.12-2.5.18-3.82.18-3.21,0-6.67-.41-10.06-1.6-2.4-.85-4.77-2.11-6.92-3.88,1.95,2.17,4.14,4.01,6.55,5.46,3.85,2.32,8.27,3.59,12.93,3.59.01,0,.03,0,.04,0,3.43,0,6.98-.66,10.59-1.98l.69-.25.56-.47c2.7-2.28,5.58-5.24,7.89-8.75,1.05-1.6,1.99-3.32,2.7-5.16"/>
      <path class="cls-19" d="m3.29,37.79l-1.63.64c1.19,3.02,2.74,5.55,4.57,7.62.79.9,1.63,1.71,2.51,2.43-1.18-1.31-2.28-2.74-3.29-4.27l3.44-2.27h0l-3.44,2.27-.15-.23-.12-.25c-.93-1.93-1.54-3.93-1.89-5.93M17.95,6.56c-1.61.1-3.16.32-4.63.63l-.39.08-.36.18c-4.06,2.02-7.22,5.21-9.34,8.97C1.1,20.2,0,24.55,0,29.02c0,3.1.53,6.26,1.63,9.32l.02.04.02.05,1.63-.64c-.23-1.36-.34-2.71-.34-4.05,0-3.87.91-7.6,2.4-10.96,1-2.24,2.27-4.31,3.74-6.15.25-.51.51-1.02.79-1.51,1.93-3.41,4.66-6.39,8.06-8.55"/>
      <path class="cls-10" d="m7.18,36.34l-2.54.91-1.36.53c.35,2,.96,4,1.89,5.93l.12.25.15.23,3.44-2.27.9-.43c-.64-.86-1.25-1.77-1.8-2.73l.69-.4h0l-.69.4-.24-.42-.14-.46c-.16-.52-.3-1.04-.43-1.56m1.91-19.72c-1.48,1.84-2.74,3.92-3.74,6.15-1.5,3.35-2.4,7.09-2.4,10.96,0,1.34.11,2.7.34,4.05l1.36-.53,2.54-.91c-.6-2.42-.89-4.87-.89-7.28,0-4.37.95-8.63,2.8-12.43"/>
      <path class="cls-10" d="m9.8,41.51l-.9.43-3.44,2.27c1.01,1.53,2.1,2.96,3.29,4.27,2.15,1.77,4.52,3.04,6.92,3.88,3.39,1.2,6.84,1.6,10.06,1.6,1.32,0,2.6-.07,3.82-.18l.95-.09.75-.59c.18-.14.36-.29.54-.43-4.72-.08-9.3-1.28-13.35-3.56-3.3-1.85-6.25-4.41-8.62-7.6"/>
      <path class="cls-17" d="m43.74,35.2c-.32.95-.68,1.88-1.08,2.81.21-.27.41-.55.6-.82.22-.68.38-1.34.48-1.99"/>
      <path class="cls-10" d="m45.46,27.43c-.26,2.61-.85,5.23-1.71,7.78-.09.64-.25,1.31-.48,1.99.73-1.06,1.32-2.15,1.74-3.23.54-1.38.81-2.73.81-4.03,0-.85-.11-1.68-.36-2.51"/>
      <path class="cls-12" d="m28.1,16.23c-2.37,0-4.98.46-7.72,1.5-1.41.66-2.91,1.81-4.26,3.33-1.03,2.42-1.59,5.16-1.58,7.99,0,1.97.27,3.99.83,5.99,1.86,3.02,4.28,5.3,7.08,6.87,2.61,1.46,5.55,2.31,8.67,2.48,1.96-2.21,3.62-4.69,4.91-7.29,2.07-4.18,3.18-8.68,3.18-12.84,0-.38,0-.75-.03-1.13-.93-1.75-2.06-3.21-3.34-4.45-.39-.38-.79-.74-1.21-1.07-.48-.23-.99-.43-1.52-.61-1.5-.5-3.18-.77-5.01-.77"/>
      <path class="cls-11" d="m23.11,13.08c-2.54,1.42-4.58,3.51-6.06,6.11-.34.6-.65,1.23-.93,1.89,1.35-1.52,2.86-2.67,4.26-3.33,2.74-1.04,5.35-1.5,7.72-1.5,1.83,0,3.51.28,5.01.77.53.18,1.04.38,1.52.61-1.09-.88-2.27-1.62-3.51-2.24-2.5-1.25-5.27-1.99-8.02-2.29"/>
      <path class="cls-14" d="m28.76,11.8c-1.65,0-3.33.31-5.03.95-.21.1-.41.21-.62.32,2.74.31,5.52,1.05,8.02,2.29,1.24.62,2.42,1.36,3.51,2.24,1.58.75,2.91,1.77,3.99,3.04,1.4,1.66,2.39,3.76,2.79,6.41l.15,1,.59.82c.63.88,1.04,1.7,1.31,2.52.26.81.38,1.62.38,2.46,0,.44-.03.89-.1,1.35.87-2.55,1.45-5.17,1.71-7.78-.02-.07-.04-.14-.07-.22-.29-.9-.74-1.81-1.41-2.75l-.26-.37-.18-.42c-1.83-4.28-4.21-7.24-6.74-9.13-2.54-1.88-5.24-2.74-8.03-2.75"/>
      <path class="cls-13" d="m34.64,17.61c.42.34.82.69,1.21,1.07,1.28,1.24,2.4,2.7,3.34,4.45.02.37.03.75.03,1.13,0,4.16-1.11,8.66-3.18,12.84-1.29,2.61-2.94,5.08-4.91,7.29.39.02.78.03,1.17.03.9,0,1.82-.06,2.74-.17,2.14-1.08,4.19-2.56,5.89-4.27.63-.63,1.21-1.3,1.74-1.98.4-.93.76-1.86,1.08-2.81.07-.46.1-.91.1-1.35,0-.84-.12-1.65-.38-2.46-.26-.81-.67-1.64-1.31-2.52l-.59-.82-.15-1c-.4-2.65-1.39-4.75-2.79-6.41-1.08-1.27-2.41-2.29-3.99-3.04"/>
      <path class="cls-20" d="m28.8,3.56s-.02,0-.04,0c-2.76,0-5.53.54-8.18,1.57l-.15.06-.15.07c-.81.39-1.59.83-2.34,1.3.69-.04,1.39-.07,2.11-.07,3.28,0,6.74.47,10.11,1.58,3.22.26,6.27,1.13,8.98,2.6,3.28,1.77,6.04,4.42,7.91,7.76,1.1,1.95,1.89,4.12,2.34,6.45.83,1.28,1.46,2.62,1.9,3.98.54,1.66.78,3.35.78,4.99,0,2.29-.47,4.48-1.2,6.52-.06.18-.13.35-.2.53.78-1.25,1.46-2.57,2-3.94.87-2.21,1.38-4.58,1.38-7.03,0-1.74-.26-3.51-.82-5.25-.51-1.6-1.28-3.16-2.29-4.64-2.29-5.2-5.45-9.29-9.23-12.1-3.86-2.88-8.37-4.38-12.92-4.38"/>
      <path class="cls-15" d="m11.48,36.75l-2.79,1.63c.56,1.05,1.17,1.97,1.82,2.79l2.11-1.01-2.11,1.01c.81,1.02,1.68,1.87,2.6,2.59,1.9,1.5,4.05,2.46,6.34,3.05-2.54-1.55-4.88-3.84-6.94-6.9-.47-1.03-.81-2.09-1.02-3.17"/>
      <path class="cls-18" d="m20.05,6.5c-.71,0-1.41.02-2.11.07-3.4,2.16-6.13,5.14-8.06,8.55-.28.5-.55,1-.79,1.51.74-.92,1.53-1.78,2.36-2.57,1.68-1.59,3.55-2.92,5.61-3.86l.12-.05.12-.05c3.65-1.41,7.3-2.1,10.8-2.1h0c.69,0,1.38.03,2.06.08-3.38-1.11-6.84-1.57-10.11-1.58"/>
      <path class="cls-8" d="m8.69,38.38l-.69.4c.56.95,1.16,1.86,1.8,2.73l.71-.34c-.65-.82-1.26-1.74-1.82-2.79"/>
      <path class="cls-8" d="m10.51,41.17l-.71.34c2.37,3.18,5.32,5.75,8.62,7.6,4.05,2.27,8.63,3.47,13.35,3.56,3.39-2.8,6.23-6.18,8.45-9.86-.17.23-.35.46-.52.68-1.33,1.69-2.87,3.25-4.35,4.56-2.55.86-4.9,1.24-7.07,1.24-3.23,0-6.08-.83-8.73-2.41-.03-.02-.06-.04-.09-.06-2.29-.59-4.43-1.56-6.34-3.05-.92-.73-1.79-1.58-2.6-2.59"/>
      <path class="cls-9" d="m43.27,37.19c-.19.28-.39.55-.6.82-.28.65-.58,1.3-.89,1.93-.48.97-1,1.92-1.56,2.85,1.27-1.7,2.3-3.51,2.92-5.23.05-.13.09-.26.13-.38"/>
      <path class="cls-7" d="m30.17,8.07c.13.04.25.08.38.13,3.49,1.2,6.89,3.1,9.77,5.89,1.92,1.86,3.6,4.11,4.9,6.76l.27.56.05.62c.06.74.08,1.49.08,2.24,0,1.05-.06,2.11-.16,3.16.24.83.36,1.66.36,2.51,0,1.29-.27,2.65-.81,4.03-.42,1.08-1.01,2.17-1.74,3.23-.04.13-.09.25-.13.38-.62,1.72-1.65,3.52-2.92,5.23-2.21,3.68-5.06,7.06-8.45,9.86.17,0,.35,0,.52,0,0,0,0,0,0,0,1.51,0,3.03-.11,4.55-.34l.59-.09.54-.25c4.33-2.03,8.22-5.1,11.15-8.86.55-.71,1.07-1.45,1.55-2.22.07-.18.13-.35.2-.53.74-2.04,1.2-4.23,1.2-6.52,0-1.64-.24-3.33-.78-4.99-.44-1.36-1.08-2.7-1.9-3.98-.45-2.33-1.24-4.5-2.34-6.45-1.87-3.33-4.63-5.99-7.91-7.76-2.71-1.46-5.76-2.34-8.98-2.6"/>
      <path class="cls-16" d="m16.12,21.07c-.2.23-.41.47-.6.72-1.54,1.92-2.81,4.3-3.56,6.82-.5,1.68-.77,3.42-.77,5.14,0,1.02.09,2.03.29,3.02l.08-.04,3.94-1.19-3.94,1.19-.08.04c.21,1.08.55,2.13,1.02,3.17,2.06,3.06,4.4,5.35,6.94,6.9.31.08.62.15.93.22,1.75.37,3.56.52,5.34.52,0,0,0,0,0,0,.76,0,1.52-.03,2.26-.08,1.12-.95,2.17-1.98,3.15-3.08-3.13-.17-6.07-1.02-8.67-2.48-2.8-1.57-5.23-3.85-7.08-6.87-.56-2-.83-4.02-.83-5.99,0-2.84.56-5.57,1.58-7.99"/>
      <path class="cls-15" d="m20.08,12.91s-.02,0-.02,0c0,0,0,0,0,0-1.76,0-3.46.17-4.98.47-2.67,1.42-4.77,3.56-6.26,6.2-1.55,2.75-2.4,6.03-2.4,9.44,0,2.35.4,4.76,1.24,7.1.32.81.67,1.56,1.04,2.26l2.79-1.63c-.2-.99-.29-2-.29-3.02,0-1.72.27-3.45.77-5.14.75-2.52,2.02-4.9,3.56-6.82.2-.25.4-.49.6-.72.28-.65.59-1.28.93-1.89,1.48-2.59,3.51-4.69,6.06-6.11-1.02-.11-2.04-.17-3.03-.17"/>
      <path class="cls-8" d="m28.11,7.99h0c-3.5,0-7.15.69-10.8,2.1l-.12.05-.12.05c-2.05.94-3.93,2.27-5.61,3.86-.84.79-1.63,1.66-2.36,2.57-1.84,3.8-2.79,8.06-2.8,12.43,0,2.41.29,4.86.89,7.28l.48-.17-.48.17c.13.52.27,1.04.43,1.56l.14.46.24.42.69-.4c-.37-.7-.72-1.45-1.04-2.26-.84-2.34-1.24-4.75-1.24-7.1,0-3.41.85-6.7,2.4-9.44,1.49-2.64,3.59-4.78,6.26-6.2,1.52-.3,3.22-.47,4.98-.47,0,0,0,0,0,0,0,0,.02,0,.02,0,1,0,2.01.06,3.03.17.2-.11.41-.22.62-.32,1.7-.64,3.39-.95,5.03-.95,2.79,0,5.49.87,8.03,2.75,2.54,1.89,4.92,4.85,6.74,9.13l.18.42.26.37c.67.94,1.12,1.85,1.41,2.75.02.07.05.14.07.22.11-1.06.16-2.11.16-3.16,0-.75-.03-1.5-.08-2.24l-.05-.62-.27-.56c-1.31-2.65-2.98-4.9-4.9-6.76-2.88-2.79-6.28-4.69-9.77-5.89-.13-.04-.25-.08-.38-.13-.68-.05-1.37-.08-2.06-.08"/>
      <path class="cls-8" d="m42.67,38.01c-.53.68-1.11,1.34-1.74,1.98-1.7,1.71-3.75,3.19-5.89,4.27-.92.11-1.84.17-2.74.17-.39,0-.78-.01-1.17-.03-.98,1.1-2.03,2.13-3.15,3.08-.74.05-1.5.08-2.26.08,0,0,0,0,0,0-1.78,0-3.59-.15-5.34-.52-.31-.07-.62-.14-.93-.22.03.02.06.04.09.06,2.65,1.58,5.5,2.4,8.73,2.41,2.17,0,4.53-.38,7.07-1.24,1.48-1.31,3.02-2.87,4.35-4.56.18-.23.35-.45.52-.68.56-.93,1.08-1.89,1.56-2.85.32-.64.61-1.28.89-1.93"/>
    </g>
  </g>
</svg>